<svg width="27" height="26" viewBox="0 0 27 26" fill="none" xmlns="http://www.w3.org/2000/svg">
<path d="M17.6717 8.84681C17.6216 8.24532 17.371 7.69396 16.97 7.29297C16.569 6.89198 16.0427 6.64136 15.4162 6.64136H14.0879V5.48851C14.0879 4.23541 13.5866 3.10762 12.7596 2.30564C11.9326 1.4786 10.8048 0.977356 9.57674 0.977356C8.32364 0.977356 7.19585 1.4786 6.39387 2.30564C5.56682 3.10762 5.06559 4.23541 5.06559 5.48851V6.64136H3.7373C3.11075 6.64136 2.58445 6.89198 2.18346 7.29297C1.78247 7.69396 1.53185 8.24532 1.48173 8.84681L0.153442 23.6835C0.153442 23.7587 0.153442 23.8339 0.153442 23.8589C0.153442 24.4103 0.379 24.9366 0.779991 25.3125C1.15592 25.6634 1.65716 25.914 2.18346 25.9641H2.20852C2.28371 25.9641 2.35889 25.9641 2.40902 25.9641H16.7445C16.7946 25.9641 16.8698 25.9641 16.945 25.9641C17.4963 25.914 17.9976 25.6634 18.3735 25.3125C18.7745 24.9366 19 24.4103 19 23.8339C19 23.7837 19 23.7336 19 23.6584L17.6717 8.84681ZM6.44399 5.48851C6.44399 4.61134 6.79486 3.83442 7.37128 3.25799C7.94771 2.68157 8.72463 2.3307 9.6018 2.3307C10.479 2.3307 11.2559 2.68157 11.8323 3.25799C12.4087 3.83442 12.7596 4.61134 12.7596 5.48851V6.64136H6.44399V5.48851ZM17.5966 23.8589C17.5966 24.0594 17.5214 24.2348 17.371 24.3602C17.2206 24.5105 16.9951 24.6108 16.7946 24.6358C16.7946 24.6358 16.7695 24.6358 16.7194 24.6358H2.40902C2.35889 24.6358 2.33383 24.6358 2.33383 24.6358H2.30877C2.08321 24.6108 1.88272 24.5105 1.73235 24.3602C1.58197 24.2348 1.50679 24.0594 1.50679 23.8589V23.7837L2.83507 8.97212C2.86013 8.69644 2.98544 8.44582 3.16088 8.27038C3.31125 8.12001 3.51174 8.01976 3.7373 8.01976H5.06559V11.0773C5.06559 11.4533 5.36633 11.754 5.74226 11.754C6.11819 11.754 6.41893 11.4533 6.41893 11.0773V8.01976H12.6844V11.0773C12.6844 11.4533 12.9852 11.754 13.3611 11.754C13.737 11.754 14.0378 11.4533 14.0378 11.0773V8.01976H15.366C15.5916 8.01976 15.7921 8.12001 15.9425 8.27038C16.1179 8.44582 16.2432 8.69644 16.2683 8.97212L17.5966 23.8088V23.8589Z" fill="black"/>
<circle cx="19.5" cy="9.5" r="7.5" fill="#BC0202"/>
<path d="M17.424 9.008C17.424 8.08533 17.5893 7.36267 17.92 6.84C18.256 6.31733 18.8107 6.056 19.584 6.056C20.3573 6.056 20.9093 6.31733 21.24 6.84C21.576 7.36267 21.744 8.08533 21.744 9.008C21.744 9.936 21.576 10.664 21.24 11.192C20.9093 11.72 20.3573 11.984 19.584 11.984C18.8107 11.984 18.256 11.72 17.92 11.192C17.5893 10.664 17.424 9.936 17.424 9.008ZM20.64 9.008C20.64 8.61333 20.6133 8.28267 20.56 8.016C20.512 7.744 20.4107 7.52267 20.256 7.352C20.1067 7.18133 19.8827 7.096 19.584 7.096C19.2853 7.096 19.0587 7.18133 18.904 7.352C18.7547 7.52267 18.6533 7.744 18.6 8.016C18.552 8.28267 18.528 8.61333 18.528 9.008C18.528 9.41333 18.552 9.75467 18.6 10.032C18.648 10.304 18.7493 10.5253 18.904 10.696C19.0587 10.8613 19.2853 10.944 19.584 10.944C19.8827 10.944 20.1093 10.8613 20.264 10.696C20.4187 10.5253 20.52 10.304 20.568 10.032C20.616 9.75467 20.64 9.41333 20.64 9.008Z" fill="white"/>
</svg>
